<?xml version="1.0" standalone="no"?>
<!DOCTYPE svg PUBLIC "-//W3C//DTD SVG 20010904//EN"
 "http://www.w3.org/TR/2001/REC-SVG-20010904/DTD/svg10.dtd">
<svg version="1.0" xmlns="http://www.w3.org/2000/svg"
 width="256.000000pt" height="256.000000pt" viewBox="0 0 256.000000 256.000000"
 preserveAspectRatio="xMidYMid meet">
<metadata>
Created by potrace 1.11, written by Peter Selinger 2001-2013
</metadata>
<g transform="translate(0.000000,256.000000) scale(0.100000,-0.100000)"
fill="#000000" stroke="none">
<path d="M494 2540 c-218 -57 -385 -211 -461 -426 l-28 -79 -2 -725 c-1 -469
1 -744 8 -779 48 -252 252 -462 500 -516 98 -21 1448 -21 1537 0 128 30 268
112 343 200 19 22 40 46 46 53 27 28 94 181 107 242 21 99 22 1436 1 1534 -43
203 -175 366 -369 457 -122 57 -127 57 -901 58 -661 0 -715 -2 -781 -19z"/>
</g>
</svg>
